<?xml version="1.0" encoding="iso-8859-1"?>
<!-- Uploaded to: SVG Repo, www.svgrepo.com, Generator: SVG Repo Mixer Tools -->
<!DOCTYPE svg PUBLIC "-//W3C//DTD SVG 1.1//EN" "http://www.w3.org/Graphics/SVG/1.1/DTD/svg11.dtd">
<svg fill="#000000" height="800px" width="800px" version="1.1" id="Capa_1" xmlns="http://www.w3.org/2000/svg" xmlns:xlink="http://www.w3.org/1999/xlink" 
	 viewBox="0 0 476.8 476.8" xml:space="preserve">
<path d="M431.23,460.8H277.967l-12.091-202.945c-0.264-4.411-4.054-7.775-8.462-7.51c-4.41,0.263-7.772,4.051-7.511,8.461
	l0.595,9.994h-21.776l0.395-7.11c5.401-3.793,9.76-8.802,12.759-14.638c0.291-0.067,0.582-0.147,0.87-0.249
	c3.799-1.34,5.941-5.257,5.177-9.096c-0.093-1.079-0.399-2.095-0.877-3.009c-0.356-1.349-0.588-2.729-0.712-4.127
	c0.038-0.725,0.065-1.452,0.065-2.181c0-0.738-0.025-1.473-0.064-2.206c0.448-5.149,2.488-10.01,5.891-13.959
	c0.662-0.504,1.25-1.115,1.739-1.828c0.869-0.823,1.788-1.577,2.754-2.257c0.732-0.325,1.404-0.757,2-1.275
	c3.494-1.994,7.435-3.107,11.517-3.225c4.728-0.13,9.39,1.076,13.429,3.5c6.607,3.984,10.916,10.624,11.824,18.226
	c0.093,0.77,0.151,1.533,0.172,2.268c0.316,10.892-6.385,20.582-16.675,24.113c-4.179,1.434-6.404,5.984-4.97,10.164
	c1.139,3.319,4.243,5.406,7.565,5.405c0.861,0,1.737-0.14,2.598-0.435c14.535-4.988,24.716-17.43,27-32.179
	c7.999,1.103,15.915,1.668,23.63,1.668c54.953,0,98.88-27.62,100.723-28.795c2.303-1.469,3.697-4.012,3.697-6.744
	c0-2.731-1.394-5.274-3.696-6.744c-1.843-1.176-45.771-28.807-100.724-28.807c-3.824,0-7.687,0.14-11.581,0.411
	c2.871-2.501,5.706-5.131,8.48-7.905c38.855-38.855,50.379-89.449,50.851-91.583c0.59-2.667-0.223-5.451-2.154-7.382
	s-4.717-2.744-7.383-2.155c-2.135,0.471-52.728,11.995-91.583,50.85c-2.706,2.706-5.341,5.539-7.905,8.487
	c0.271-3.897,0.412-7.763,0.412-11.59c0-54.95-27.627-98.874-28.803-100.716C243.674,1.394,241.131,0,238.4,0
	s-5.274,1.394-6.744,3.696c-1.176,1.843-28.803,45.766-28.803,100.716c0,3.824,0.14,7.688,0.411,11.583
	c-2.501-2.871-5.13-5.706-7.904-8.479c-38.855-38.856-89.449-50.379-91.583-50.851c-2.667-0.592-5.451,0.223-7.382,2.155
	c-1.932,1.931-2.744,4.715-2.155,7.382c0.471,2.135,11.994,52.728,50.851,91.583c2.707,2.707,5.541,5.342,8.489,7.906
	c-3.897-0.272-7.764-0.413-11.59-0.413c-54.953,0-98.88,27.63-100.724,28.806c-2.303,1.469-3.696,4.013-3.696,6.744
	c0,2.732,1.395,5.275,3.697,6.744c1.843,1.176,45.77,28.795,100.723,28.795c7.66,0,15.518-0.557,23.455-1.645
	c3.052,19.46,19.926,34.395,40.225,34.395c2.368,0,4.725-0.221,7.046-0.628l-11.103,199.865c-0.122,2.195,0.665,4.344,2.176,5.941
	c1.511,1.598,3.613,2.502,5.812,2.502h30.415h30.415h160.8c4.418,0,8-3.582,8-8S435.648,460.8,431.23,460.8z M223.568,361.6h32.461
	l1.335,22.4h-35.039L223.568,361.6z M255.075,345.6h-30.618l1.244-22.4h28.039L255.075,345.6z M221.435,400h36.882l1.335,22.4
	H220.19L221.435,400z M251.453,284.8l1.335,22.4H226.59l1.244-22.4H251.453z M334.81,181.28c33.698,0,63.521,11.758,79.583,19.549
	c-16.064,7.79-45.885,19.542-79.583,19.542c-7.919,0-16.095-0.662-24.367-1.951c-2.583-10.394-9.139-19.325-18.528-24.988
	c-1.755-1.053-3.58-1.96-5.455-2.732c2.387-1.261,4.812-2.6,7.265-4.022C307.741,183.105,321.558,181.28,334.81,181.28z
	 M292.753,118.83c23.837-23.837,53.252-36.612,70.113-42.456c-5.821,16.837-18.563,46.19-42.472,70.099
	c-23.842,23.842-53.262,36.617-70.123,42.46c3.203-9.28,8.513-22.367,16.648-36.255C274.445,139.834,283.136,128.446,292.753,118.83
	z M218.854,104.413c0-33.711,11.767-63.544,19.557-79.599c7.791,16.021,19.537,45.787,19.537,79.599
	c0,13.286-1.833,27.145-5.424,41.206c-6.139,10.616-10.744,20.721-14.107,29.237c-3.371-8.557-7.994-18.714-14.17-29.363
	C220.677,131.475,218.854,117.659,218.854,104.413z M113.956,76.381c16.867,5.849,46.265,18.622,70.091,42.448
	c21.943,21.943,34.509,48.608,40.927,65.862c-9.103-4.221-21.281-9.086-35.589-12.912c-12.484-7.404-23.583-15.91-32.981-25.307
	C132.578,122.646,119.804,93.246,113.956,76.381z M62.407,200.829c16.063-7.792,45.885-19.549,79.583-19.549
	c13.596,0,27.79,1.908,42.187,5.67c0.063,0.017,0.127,0.032,0.191,0.047c3.092,0.811,6.081,1.678,8.956,2.58
	c-0.357,0.113-0.705,0.252-1.058,0.375c-0.366,0.128-0.734,0.25-1.097,0.388c-0.527,0.201-1.045,0.423-1.563,0.646
	c-0.333,0.143-0.67,0.277-0.999,0.43c-0.569,0.263-1.126,0.552-1.684,0.842c-0.267,0.139-0.54,0.266-0.805,0.411
	c-0.816,0.448-1.62,0.921-2.407,1.427c-0.618,0.396-1.219,0.81-1.81,1.234c-0.19,0.136-0.373,0.279-0.56,0.417
	c-0.4,0.297-0.795,0.598-1.182,0.908c-0.208,0.167-0.412,0.336-0.617,0.507c-0.36,0.3-0.714,0.605-1.062,0.916
	c-0.197,0.176-0.394,0.352-0.587,0.531c-0.363,0.337-0.716,0.681-1.065,1.029c-0.159,0.159-0.322,0.314-0.479,0.476
	c-0.496,0.511-0.98,1.032-1.447,1.567c-0.022,0.025-0.042,0.052-0.064,0.077c-0.444,0.511-0.872,1.034-1.289,1.565
	c-0.142,0.182-0.277,0.368-0.416,0.552c-0.29,0.384-0.576,0.771-0.852,1.164c-0.151,0.216-0.299,0.434-0.446,0.652
	c-0.254,0.378-0.502,0.761-0.743,1.147c-0.139,0.223-0.278,0.445-0.413,0.671c-0.249,0.416-0.487,0.839-0.72,1.264
	c-0.108,0.197-0.221,0.392-0.326,0.591c-0.327,0.621-0.642,1.249-0.937,1.887c-0.033,0.072-0.062,0.147-0.095,0.219
	c-0.26,0.571-0.507,1.148-0.74,1.732c-0.09,0.226-0.172,0.455-0.258,0.682c-0.166,0.439-0.328,0.88-0.479,1.326
	c-0.088,0.258-0.171,0.518-0.253,0.778c-0.137,0.431-0.265,0.865-0.388,1.302c-0.073,0.26-0.146,0.52-0.214,0.783
	c-0.033,0.129-0.073,0.256-0.106,0.386c-8.205,1.269-16.314,1.91-24.175,1.91C108.292,220.37,78.469,208.617,62.407,200.829z
	 M180.95,228.39c0-0.725,0.036-1.492,0.108-2.282c0.687-7.624,4.803-14.383,11.296-18.548c3.961-2.545,8.566-3.89,13.316-3.89
	c1.781,0,3.544,0.189,5.259,0.56c2.859,0.617,5.589,1.737,8.06,3.32c0.531,0.343,1.043,0.711,1.546,1.091
	c1.099,0.831,2.135,1.743,3.083,2.738c3.845,4.063,6.167,9.223,6.673,14.726c-0.062,1.136-0.085,2.277-0.051,3.425
	c0.01,0.36,0.032,0.719,0.052,1.078c-0.162,1.821-0.514,3.614-1.071,5.35c-1.941,6.058-6.096,11.08-11.702,14.144
	c-3.659,2.003-7.646,3.018-11.85,3.018C192.039,253.12,180.95,242.026,180.95,228.39z M240.015,460.8h-21.958l1.244-22.4h41.303
	l1.335,22.4H240.015z"/>
</svg>